<svg xmlns="http://www.w3.org/2000/svg" width="12" height="12" viewBox="0 0 12 12">
  <path id="Icon_metro-sun" data-name="Icon metro-sun" d="M11.463,7.589a3.231,3.231,0,1,0,3.231,3.231,3.235,3.235,0,0,0-3.231-3.231Zm0,5.538A2.308,2.308,0,1,1,13.77,10.82,2.307,2.307,0,0,1,11.463,13.128Zm0-6.462a.462.462,0,0,0,.462-.462V5.282a.462.462,0,1,0-.923,0V6.2A.462.462,0,0,0,11.463,6.666Zm0,8.308a.462.462,0,0,0-.462.462v.923a.462.462,0,0,0,.923,0v-.923A.462.462,0,0,0,11.463,14.974Zm3.59-7.091L15.7,7.23a.461.461,0,1,0-.653-.653L14.4,7.23a.461.461,0,0,0,.653.653ZM7.873,13.758l-.653.653a.461.461,0,0,0,.653.653l.653-.653a.461.461,0,1,0-.653-.653ZM7.309,10.82a.462.462,0,0,0-.462-.462H5.924a.462.462,0,1,0,0,.923h.923A.462.462,0,0,0,7.309,10.82ZM17,10.359h-.923a.462.462,0,1,0,0,.923H17a.462.462,0,0,0,0-.923ZM7.873,7.883a.461.461,0,0,0,.653-.653l-.653-.653a.461.461,0,0,0-.653.653Zm7.18,5.874a.461.461,0,1,0-.653.653l.653.653a.461.461,0,1,0,.653-.653Z" transform="translate(-5.463 -4.82)" fill="#f5f5f5"/>
</svg>
