<svg xmlns="http://www.w3.org/2000/svg" width="12.609" height="13.758" viewBox="0 0 12.609 13.758">
  <path id="Icon_ionic-ios-moon" data-name="Icon ionic-ios-moon" d="M17.138,14.893c-.1,0-.208.007-.312.007a6.315,6.315,0,0,1-4.542-1.913A6.526,6.526,0,0,1,10.4,8.374a6.608,6.608,0,0,1,.627-2.819,9.336,9.336,0,0,1,.487-.838.141.141,0,0,0-.14-.219,6.928,6.928,0,0,0,1.057,13.755,6.753,6.753,0,0,0,5.19-2.439,6.543,6.543,0,0,0,.587-.781.144.144,0,0,0-.147-.219A6.117,6.117,0,0,1,17.138,14.893Z" transform="translate(-5.625 -4.496)" fill="#f5f5f5"/>
</svg>
